<mxfile host="65bd71144e">
    <diagram id="OFWhQe-uKBpYcbOV4DPI" name="PÃ¡gina-1">
        <mxGraphModel dx="1352" dy="667" grid="1" gridSize="10" guides="1" tooltips="1" connect="1" arrows="1" fold="1" page="1" pageScale="1" pageWidth="1169" pageHeight="1654" math="0" shadow="0">
            <root>
                <mxCell id="0"/>
                <mxCell id="1" parent="0"/>
                <mxCell id="4" style="edgeStyle=none;html=1;exitX=0.5;exitY=1;exitDx=0;exitDy=0;fontSize=14;fillColor=#ffe6cc;strokeColor=#d79b00;" parent="1" source="2" target="3" edge="1">
                    <mxGeometry relative="1" as="geometry"/>
                </mxCell>
                <mxCell id="2" value="&lt;font style=&quot;font-size: 14px&quot;&gt;&lt;b&gt;User access to&amp;nbsp; Template Generator page&lt;/b&gt;&lt;/font&gt;" style="rounded=1;whiteSpace=wrap;html=1;fillColor=#f5f5f5;strokeColor=#666666;fontColor=#333333;" parent="1" vertex="1">
                    <mxGeometry x="290" y="30" width="164" height="80" as="geometry"/>
                </mxCell>
                <mxCell id="10" style="edgeStyle=none;html=1;fontSize=14;fillColor=#ffe6cc;strokeColor=#d79b00;" parent="1" source="3" target="5" edge="1">
                    <mxGeometry relative="1" as="geometry"/>
                </mxCell>
                <mxCell id="3" value="PHP page script executed" style="shape=document;whiteSpace=wrap;html=1;boundedLbl=1;fontSize=14;fillColor=#dae8fc;strokeColor=#6c8ebf;" parent="1" vertex="1">
                    <mxGeometry x="312" y="150" width="120" height="80" as="geometry"/>
                </mxCell>
                <mxCell id="11" style="edgeStyle=none;html=1;fontSize=14;fillColor=#ffe6cc;strokeColor=#d79b00;" parent="1" source="5" target="8" edge="1">
                    <mxGeometry relative="1" as="geometry"/>
                </mxCell>
                <mxCell id="5" value="HTML header and body defined and JS script included in header" style="rounded=0;whiteSpace=wrap;html=1;fontSize=14;fillColor=#ffe6cc;strokeColor=#d79b00;" parent="1" vertex="1">
                    <mxGeometry x="252" y="250" width="240" height="100" as="geometry"/>
                </mxCell>
                <mxCell id="12" value="" style="edgeStyle=none;html=1;fontSize=14;fillColor=#ffe6cc;strokeColor=#d79b00;" parent="1" source="8" target="9" edge="1">
                    <mxGeometry relative="1" as="geometry"/>
                </mxCell>
                <mxCell id="8" value="&lt;b&gt;$instrument_names&lt;/b&gt; variable defined by calling REDCap function:&amp;nbsp;&lt;br&gt;&lt;b&gt;&quot;getInstrumentNames()&quot;&lt;/b&gt;" style="rounded=0;whiteSpace=wrap;html=1;fontSize=14;fillColor=#ffe6cc;strokeColor=#d79b00;" parent="1" vertex="1">
                    <mxGeometry x="252" y="380" width="240" height="100" as="geometry"/>
                </mxCell>
                <mxCell id="14" style="edgeStyle=none;html=1;fontSize=14;fillColor=#ffe6cc;strokeColor=#d79b00;" parent="1" source="9" target="13" edge="1">
                    <mxGeometry relative="1" as="geometry"/>
                </mxCell>
                <mxCell id="42" style="edgeStyle=none;html=1;exitX=0.5;exitY=1;exitDx=0;exitDy=0;entryX=0.5;entryY=0;entryDx=0;entryDy=0;fontSize=14;fillColor=#ffe6cc;strokeColor=#d79b00;" parent="1" source="9" target="32" edge="1">
                    <mxGeometry relative="1" as="geometry"/>
                </mxCell>
                <mxCell id="9" value="HTML &lt;b&gt;form&lt;/b&gt; object created containing a &lt;b&gt;select&lt;/b&gt; field with the instrument names and the&amp;nbsp; &lt;b&gt;&quot;Select Instrument&quot;&lt;/b&gt; button" style="rounded=0;whiteSpace=wrap;html=1;fontSize=14;fillColor=#ffe6cc;strokeColor=#d79b00;" parent="1" vertex="1">
                    <mxGeometry x="252" y="510" width="240" height="100" as="geometry"/>
                </mxCell>
                <mxCell id="13" value="Is the field selected?" style="rhombus;whiteSpace=wrap;html=1;fontSize=14;fillColor=#e1d5e7;strokeColor=#9673a6;" parent="1" vertex="1">
                    <mxGeometry x="590" y="502.5" width="126" height="115" as="geometry"/>
                </mxCell>
                <mxCell id="22" value="" style="edgeStyle=elbowEdgeStyle;elbow=horizontal;endArrow=classic;html=1;fontSize=14;exitX=0.5;exitY=0;exitDx=0;exitDy=0;entryX=0;entryY=0.5;entryDx=0;entryDy=0;fillColor=#ffe6cc;strokeColor=#d79b00;" parent="1" source="13" target="28" edge="1">
                    <mxGeometry width="50" height="50" relative="1" as="geometry">
                        <mxPoint x="650" y="457.5" as="sourcePoint"/>
                        <mxPoint x="740" y="460" as="targetPoint"/>
                        <Array as="points">
                            <mxPoint x="653" y="450"/>
                            <mxPoint x="670" y="440"/>
                            <mxPoint x="650" y="450"/>
                            <mxPoint x="650" y="437.5"/>
                        </Array>
                    </mxGeometry>
                </mxCell>
                <mxCell id="24" value="" style="edgeStyle=elbowEdgeStyle;elbow=horizontal;endArrow=classic;html=1;fontSize=14;exitX=0.5;exitY=1;exitDx=0;exitDy=0;entryX=0;entryY=0.5;entryDx=0;entryDy=0;fillColor=#ffe6cc;strokeColor=#d79b00;" parent="1" source="13" target="27" edge="1">
                    <mxGeometry width="50" height="50" relative="1" as="geometry">
                        <mxPoint x="650" y="730" as="sourcePoint"/>
                        <mxPoint x="740" y="660" as="targetPoint"/>
                        <Array as="points">
                            <mxPoint x="653" y="660"/>
                            <mxPoint x="650" y="660"/>
                            <mxPoint x="650" y="650"/>
                            <mxPoint x="650" y="650"/>
                            <mxPoint x="650" y="680"/>
                            <mxPoint x="667" y="640"/>
                            <mxPoint x="647" y="650"/>
                            <mxPoint x="647" y="637.5"/>
                        </Array>
                    </mxGeometry>
                </mxCell>
                <mxCell id="25" value="YES" style="text;html=1;align=center;verticalAlign=middle;whiteSpace=wrap;rounded=0;fontSize=14;" parent="1" vertex="1">
                    <mxGeometry x="660" y="440" width="60" height="30" as="geometry"/>
                </mxCell>
                <mxCell id="26" value="NO" style="text;html=1;align=center;verticalAlign=middle;whiteSpace=wrap;rounded=0;fontSize=14;" parent="1" vertex="1">
                    <mxGeometry x="660" y="650" width="60" height="30" as="geometry"/>
                </mxCell>
                <mxCell id="27" value="&quot;Select Instrument&quot; button can't be clicked (&lt;b&gt;HIDDEN=TRUE&lt;/b&gt;)" style="rounded=0;whiteSpace=wrap;html=1;fontSize=14;fillColor=#ffe6cc;strokeColor=#d79b00;" parent="1" vertex="1">
                    <mxGeometry x="740" y="600" width="240" height="100" as="geometry"/>
                </mxCell>
                <mxCell id="31" style="edgeStyle=none;html=1;entryX=0.002;entryY=0.576;entryDx=0;entryDy=0;entryPerimeter=0;fontSize=14;fillColor=#ffe6cc;strokeColor=#d79b00;" parent="1" source="28" target="30" edge="1">
                    <mxGeometry relative="1" as="geometry"/>
                </mxCell>
                <mxCell id="28" value="JS &lt;b&gt;&quot;click event&quot;&lt;/b&gt; function executed" style="shape=document;whiteSpace=wrap;html=1;boundedLbl=1;fontSize=14;fillColor=#dae8fc;strokeColor=#6c8ebf;" parent="1" vertex="1">
                    <mxGeometry x="740" y="430" width="120" height="80" as="geometry"/>
                </mxCell>
                <mxCell id="30" value="Button's &lt;b&gt;HIDDEN&lt;/b&gt; atribute set to &lt;b&gt;FALSE&lt;/b&gt;, now It can be clicked" style="rounded=0;whiteSpace=wrap;html=1;fontSize=14;fillColor=#ffe6cc;strokeColor=#d79b00;" parent="1" vertex="1">
                    <mxGeometry x="900" y="410" width="240" height="100" as="geometry"/>
                </mxCell>
                <mxCell id="32" value="Is the button clicked?" style="rhombus;whiteSpace=wrap;html=1;fontSize=14;fillColor=#e1d5e7;strokeColor=#9673a6;" parent="1" vertex="1">
                    <mxGeometry x="309" y="640" width="126" height="115" as="geometry"/>
                </mxCell>
                <mxCell id="35" value="" style="edgeStyle=elbowEdgeStyle;elbow=horizontal;endArrow=classic;html=1;fontSize=14;exitX=0;exitY=0.5;exitDx=0;exitDy=0;entryX=0.5;entryY=0;entryDx=0;entryDy=0;fillColor=#ffe6cc;strokeColor=#d79b00;" parent="1" source="32" target="45" edge="1">
                    <mxGeometry width="50" height="50" relative="1" as="geometry">
                        <mxPoint x="302" y="690" as="sourcePoint"/>
                        <mxPoint x="180" y="760" as="targetPoint"/>
                        <Array as="points">
                            <mxPoint x="180" y="700"/>
                            <mxPoint x="282" y="760"/>
                            <mxPoint x="290" y="772.5"/>
                            <mxPoint x="287" y="772.5"/>
                            <mxPoint x="287" y="762.5"/>
                            <mxPoint x="287" y="762.5"/>
                            <mxPoint x="287" y="792.5"/>
                            <mxPoint x="304" y="752.5"/>
                            <mxPoint x="284" y="762.5"/>
                            <mxPoint x="284" y="750"/>
                        </Array>
                    </mxGeometry>
                </mxCell>
                <mxCell id="36" value="YES" style="text;html=1;align=center;verticalAlign=middle;whiteSpace=wrap;rounded=0;fontSize=14;direction=east;" parent="1" vertex="1">
                    <mxGeometry x="570" y="710" width="60" height="30" as="geometry"/>
                </mxCell>
                <mxCell id="37" value="NO" style="text;html=1;align=center;verticalAlign=middle;whiteSpace=wrap;rounded=0;fontSize=14;direction=east;" parent="1" vertex="1">
                    <mxGeometry x="120" y="710" width="60" height="30" as="geometry"/>
                </mxCell>
                <mxCell id="41" value="" style="edgeStyle=elbowEdgeStyle;elbow=horizontal;endArrow=classic;html=1;fontSize=14;exitX=1;exitY=0.5;exitDx=0;exitDy=0;entryX=0.5;entryY=0;entryDx=0;entryDy=0;fillColor=#ffe6cc;strokeColor=#d79b00;" parent="1" source="32" target="46" edge="1">
                    <mxGeometry width="50" height="50" relative="1" as="geometry">
                        <mxPoint x="462" y="752.5" as="sourcePoint"/>
                        <mxPoint x="570" y="760" as="targetPoint"/>
                        <Array as="points">
                            <mxPoint x="570" y="700"/>
                            <mxPoint x="560" y="700"/>
                            <mxPoint x="479" y="690"/>
                            <mxPoint x="459" y="700"/>
                            <mxPoint x="459" y="687.5"/>
                        </Array>
                    </mxGeometry>
                </mxCell>
                <mxCell id="45" value="Keep waiting for the user to select an instrument and click the button" style="rounded=0;whiteSpace=wrap;html=1;fontSize=14;fillColor=#ffe6cc;strokeColor=#d79b00;" parent="1" vertex="1">
                    <mxGeometry x="60" y="770" width="240" height="100" as="geometry"/>
                </mxCell>
                <mxCell id="46" value="Selected instrument's name is posted and the page is reloaded&amp;nbsp;" style="rounded=0;whiteSpace=wrap;html=1;fontSize=14;fillColor=#ffe6cc;strokeColor=#d79b00;" parent="1" vertex="1">
                    <mxGeometry x="450" y="770" width="240" height="100" as="geometry"/>
                </mxCell>
            </root>
        </mxGraphModel>
    </diagram>
</mxfile>